HIERARCHY
ROOT Hips
{
     OFFSET 1.88212 96.90440 -13.34250
     CHANNELS 6 Xposition Yposition Zposition Zrotation Xrotation Yrotation
     JOINT Spine
     {
          OFFSET 0.00000 11.89050 0.00000
          CHANNELS 3 Zrotation Xrotation Yrotation
          JOINT Spine1
          {
               OFFSET -0.00000 25.65740 0.12766
               CHANNELS 3 Zrotation Xrotation Yrotation
               JOINT HEad
               {
                    OFFSET 0.00000 8.73416 0.01134
                    CHANNELS 3 Zrotation Xrotation Yrotation
                    End Site
                    {
                         OFFSET -0.29000 12.77420 2.51395
                    }
               }
               JOINT LeftShoulder1
               {
                    OFFSET 8.99000 -0.36225 -0.22000
                    CHANNELS 3 Zrotation Xrotation Yrotation
                    JOINT LeftArm
                    {
                         OFFSET 10.28270 -0.00338 0.32212
                         CHANNELS 3 Zrotation Xrotation Yrotation
                         JOINT LeftForeArm
                         {
                              OFFSET 32.76690 0.09914 -1.42434
                              CHANNELS 3 Zrotation Xrotation Yrotation
                              JOINT LeftHand
                              {
                                   OFFSET 27.56430 0.08536 1.02216
                                   CHANNELS 3 Zrotation Xrotation Yrotation
                                   End Site
                                   {
                                        OFFSET 16.74430 -0.60000 1.50291
                                   }
                              }
                         }
                    }
               }
               JOINT RightShoulder
               {
                    OFFSET -8.99000 -0.36225 -0.22000
                    CHANNELS 3 Zrotation Xrotation Yrotation
                    JOINT RightArm
                    {
                         OFFSET -10.28270 -0.00338 0.32212
                         CHANNELS 3 Zrotation Xrotation Yrotation
                         JOINT RightForeArm
                         {
                              OFFSET -32.89710 0.09914 -1.42434
                              CHANNELS 3 Zrotation Xrotation Yrotation
                              JOINT RightHand
                              {
                                   OFFSET -27.49210 0.08536 1.02216
                                   CHANNELS 3 Zrotation Xrotation Yrotation
                                   End Site
                                   {
                                        OFFSET -16.63120 -0.60000 1.50291
                                   }
                              }
                         }
                    }
               }
          }
     }
     JOINT LeftUpLeg
     {
          OFFSET 8.94580 -8.66707 0.10165
          CHANNELS 3 Zrotation Xrotation Yrotation
          JOINT LeftLeg
          {
               OFFSET 0.00000 -44.42270 1.37270
               CHANNELS 3 Zrotation Xrotation Yrotation
               JOINT LeftFoot
               {
                    OFFSET -0.25355 -42.09240 -1.46059
                    CHANNELS 3 Zrotation Xrotation Yrotation
                    JOINT LeftToes
                    {
                         OFFSET -0.04000 -4.41509 8.49910
                         CHANNELS 3 Zrotation Xrotation Yrotation
                         End Site
                         {
                              OFFSET 0.08000 -0.04745 9.77979
                         }
                    }
               }
          }
     }
     JOINT RightUpLeg
     {
          OFFSET -8.94580 -8.66707 0.10165
          CHANNELS 3 Zrotation Xrotation Yrotation
          JOINT RightLeg
          {
               OFFSET 0.00000 -44.42270 1.37270
               CHANNELS 3 Zrotation Xrotation Yrotation
               JOINT RightFoot
               {
                    OFFSET 0.25355 -42.09240 -1.46059
                    CHANNELS 3 Zrotation Xrotation Yrotation
                    JOINT RightToes
                    {
                         OFFSET 0.04000 -4.41509 8.49910
                         CHANNELS 3 Zrotation Xrotation Yrotation
                         End Site
                         {
                              OFFSET -0.08000 -0.13745 9.77979
                         }
                    }
               }
          }
     }
}
MOTION
Frames: 15
Frame Time: 0.01667
-422.74603 91.69904 -151.49489 18.59338 4.25777 73.79295 -8.29697 21.19414 0.08408 0.00710 0.03007 -0.02524 -13.05996 1.14584 22.66565 3.76271 11.43374 -5.67937 -98.31921 -22.38277 -82.11110 -5.81774 39.23897 -103.16661 31.60691 -0.95883 -16.03549 34.96866 9.97963 -5.53297 36.60995 3.94450 64.23006 -7.54472 30.84008 119.16632 -39.54045 12.87398 -17.77182 -11.00572 -25.91027 20.87781 21.66420 31.46236 -20.24794 8.04251 0.00522 0.01258 -9.07711 18.44283 0.52712 -14.16041 2.91402 -8.21401 13.20543 42.69739 -38.46120 -0.03739 0.04351 0.04100 5.33360 -28.95453 12.52372 
-422.70526 91.05110 -151.19748 17.77259 3.37709 73.89416 -7.42201 21.06337 -0.11060 0.00271 0.03592 -0.01280 -12.04267 1.72889 21.07052 3.85522 11.07054 -5.52960 -99.28617 -24.55490 -81.94473 -11.04281 42.10964 -101.04642 25.85153 -6.06573 -14.65531 30.40909 10.60142 -8.34275 43.00365 4.02431 64.52016 -8.33641 30.75540 121.45417 -28.75778 13.08217 -23.33964 -11.48576 -23.40959 19.81184 21.67029 25.87027 -18.53667 7.41801 0.00604 0.00828 -9.02049 16.30940 -8.54910 -14.27108 4.59759 -4.89825 17.88604 40.18662 -41.81996 -7.69177 0.07889 -0.03142 4.91692 -29.71767 14.67453 
-422.63931 90.38030 -150.89934 16.95530 2.43235 73.96697 -6.47556 21.29466 -0.20294 0.00065 0.03418 0.00471 -10.86099 2.16707 18.92181 3.83156 10.68190 -5.01409 -100.52946 -27.46586 -81.94605 -19.36670 45.83725 -96.80304 18.48648 -9.50354 -12.74503 23.77952 12.42184 -9.11763 52.22890 1.65970 64.11921 -8.97441 30.51126 123.23921 -15.05502 12.18036 -28.11638 -11.47135 -21.01382 18.60654 21.24661 20.62027 -15.78032 7.14589 0.00361 0.00198 -9.87459 13.28837 -19.74177 -14.82856 6.39268 -1.38129 22.78272 38.56533 -44.40746 -15.51761 0.13741 -0.08695 5.57339 -31.90331 18.62762 
-422.56442 89.58469 -150.62325 16.26292 1.48021 74.04709 -5.53265 22.81073 0.43174 0.00279 0.10277 0.05309 -9.19738 2.19388 14.55551 -0.42937 16.05116 6.48819 -100.62738 -21.80791 -87.11765 -35.69187 49.83236 -84.89836 24.49891 0.78382 -21.94129 12.46172 14.80040 -0.72587 67.25672 -11.23157 64.19625 -9.39930 30.93206 120.89235 1.46556 11.77080 -29.63130 -10.62574 -19.19945 16.50422 19.19434 17.62365 -9.79626 8.30646 -0.03959 -0.02599 -12.64493 7.86796 -35.64738 -16.68160 8.47618 2.66950 29.36476 39.77206 -45.79999 -21.66962 0.28792 -0.15281 15.11944 -36.60540 14.53468 
-422.46887 88.59337 -150.41936 15.81463 0.59830 74.15379 -4.68870 25.28756 1.92204 0.00658 0.07895 0.06450 -7.07681 2.21862 8.25252 -0.15315 13.81966 6.31761 -102.70522 -28.89755 -86.09084 -50.77872 52.93651 -76.41388 20.32109 1.27562 -22.16786 1.71294 14.00326 7.65810 78.51377 -21.69476 68.33964 -11.87164 28.26423 113.69213 12.26651 9.11203 -30.79533 -9.13444 -18.06148 13.56898 15.94159 16.65640 -1.37331 10.55154 -0.10468 -0.01195 -16.65917 3.30067 -51.80667 -19.45317 10.20406 7.18398 36.92100 40.13881 -46.64722 -27.86174 0.28112 -0.12608 14.26147 -46.14724 24.11437 
-422.37326 87.48387 -150.34174 15.68883 -0.15304 74.28671 -4.04520 28.47143 4.23097 0.01023 0.05496 0.05820 -4.47771 2.24476 0.29747 0.40104 11.31163 5.49361 -104.28135 -36.82043 -84.34720 -63.95698 55.54204 -70.99131 32.32342 19.74141 -15.17856 -8.11664 11.07893 13.82903 85.61156 -27.92384 71.14125 -18.64239 22.82917 107.23166 21.73776 6.70605 -33.31609 -7.23966 -17.68025 9.89847 11.52594 17.40764 9.04440 13.62067 -0.17030 0.03146 -15.87779 5.39711 -54.35743 -22.90298 11.37490 11.99274 45.26279 37.56403 -48.06879 -36.04599 0.29662 -0.01790 20.91935 -46.72340 16.06511 
-422.37308 86.16665 -150.38248 15.87836 -0.73865 74.42510 -3.73983 32.17322 7.37489 0.00774 0.04369 0.05757 -1.28805 2.14808 -9.05941 0.98672 8.63184 4.04001 -104.33311 -45.02492 -80.81175 -69.81889 55.48400 -69.44204 26.85662 12.60725 -24.48449 -17.77442 6.86769 18.73692 89.89350 -32.41276 72.52931 -26.57201 17.42266 96.73196 27.53552 1.12405 -35.35265 -5.14008 -18.17041 5.60848 5.76699 19.51279 21.21601 17.29379 -0.21557 0.09861 -18.09407 2.97863 -64.70454 -27.25695 12.21127 16.88247 53.81556 36.03817 -50.72830 -30.33678 -0.00405 0.10513 10.90405 -50.47916 13.97815 
-422.55286 84.79020 -150.48280 16.31485 -1.15273 74.55196 -3.87866 35.80148 11.30754 0.00003 0.04046 0.05678 2.68217 2.11455 -19.47132 1.19785 6.24660 2.29840 -103.57037 -49.36019 -77.75028 -68.05258 52.73993 -70.18063 23.09344 11.13139 -23.97202 -27.59751 2.70167 22.52574 92.67442 -35.82135 73.63933 -33.55790 14.83405 81.65047 35.83386 -4.26638 -33.07048 -2.88064 -19.65484 0.85980 -1.67849 22.52322 34.96855 21.29228 -0.22132 0.17383 -19.10434 0.63137 -71.52979 -31.02155 12.44134 21.36238 60.68843 33.05552 -52.64982 -25.27295 -0.05867 0.07805 3.18866 -51.63557 10.50366 
-422.97369 83.44400 -150.56528 16.89614 -1.41861 74.67981 -4.69315 39.21512 16.02103 -0.01811 0.03525 0.04339 6.86413 1.08242 -29.35641 1.24295 4.15205 0.13050 -102.47729 -51.30749 -75.07787 -66.98770 52.03260 -71.22099 18.51389 6.54936 -29.23837 -28.07157 1.96007 15.89607 84.47626 -29.11897 74.12235 -36.72321 13.01986 65.59751 41.23994 -13.74229 -29.53359 -0.59787 -22.10229 -4.22897 -9.31415 25.14633 48.37997 24.56354 -0.13333 0.14082 -21.43030 -2.12873 -78.68845 -34.35862 12.34869 25.38745 66.92388 31.01399 -56.13650 -39.38855 0.09603 -0.35287 16.15008 -54.32926 10.83058 
-423.63086 82.19375 -150.56892 17.54164 -1.55068 74.83585 -6.43022 42.32563 21.45770 -0.02885 0.03584 0.02507 11.15207 -0.91621 -38.36137 1.44348 2.24165 -2.56097 -101.61539 -51.82592 -73.08342 -65.91421 52.26326 -72.40646 18.24335 6.77462 -26.62239 -27.70193 1.80156 8.45705 76.12372 -21.24600 76.07265 -36.29575 9.13789 49.00309 38.25386 -3.16563 -22.79410 1.31576 -24.57194 -8.88122 -16.54232 26.88236 60.41655 27.22465 -0.08024 0.10198 -23.53115 -4.39253 -83.71125 -37.22766 12.07529 28.89387 71.08414 28.91945 -58.55499 -30.50903 0.00752 0.09943 6.41914 -55.54534 10.00302 
-424.43845 81.07679 -150.46628 18.18262 -1.57800 75.03061 -8.07001 44.33970 25.87533 -0.00218 -0.04009 -0.05519 15.00301 -2.44520 -45.56421 1.35631 1.52852 -4.76572 -101.07230 -51.54677 -71.79691 -64.76122 52.92217 -73.57267 16.58244 4.55099 -28.33602 -27.11918 2.38566 2.38310 67.43970 -13.56688 79.88848 -36.03528 1.30187 32.09074 38.89762 -0.91590 -20.87357 2.91608 -26.98070 -13.08592 -23.28097 27.94209 70.95111 29.35192 -0.04504 0.07038 -25.98168 -6.41816 -88.10033 -39.61930 11.74929 31.85959 73.63672 27.50841 -60.29300 -30.05713 0.00861 0.01064 6.84655 -56.30466 10.62075 
-425.26508 80.09438 -150.26031 18.76560 -1.53125 75.26357 -9.43055 45.49811 29.15907 0.00422 -0.03129 -0.05120 18.42283 -3.57747 -51.24670 1.26747 1.61372 -6.71496 -101.04266 -50.84954 -71.27221 -63.70702 53.62925 -74.27071 17.00616 4.64533 -25.74931 -25.72293 3.42853 -1.86571 61.24477 -8.51141 81.94987 -38.19946 -5.35245 22.52046 24.49435 4.36906 -3.53813 4.24069 -29.24771 -16.83885 -29.37746 28.46810 79.89262 31.01459 -0.02223 0.04512 -28.25349 -8.02367 -91.29499 -41.52245 11.47272 34.28286 75.50076 26.11431 -61.72155 -30.00502 0.00698 0.00873 7.76959 -56.68289 11.39344 
-425.98340 79.23579 -149.97009 19.24661 -1.44321 75.52192 -10.48883 45.98248 31.32940 -0.00152 -0.01823 -0.04384 20.58874 -3.45010 -54.47443 1.22991 2.36961 -8.35791 -101.50900 -49.97759 -71.41639 -63.00959 54.32457 -74.26369 16.36650 3.15409 -26.31166 -24.55783 4.75819 -4.52829 57.96210 -5.88817 83.30853 -40.80950 -10.31429 18.53123 28.96139 8.68659 -7.32832 5.31344 -31.29831 -20.14626 -34.69241 28.60026 87.21978 32.27641 -0.00823 0.02645 -30.41228 -9.30124 -93.75993 -42.97345 11.31316 36.18280 76.83540 24.89642 -62.87791 -30.00142 0.00861 0.00901 8.74235 -56.97735 12.11346 
-426.50436 78.49432 -149.59233 19.60824 -1.33821 75.79408 -12.46685 46.50640 32.44288 -0.03160 0.06641 -0.10489 21.99060 -2.70090 -54.45892 1.77874 2.61995 -8.53315 -102.48545 -48.92340 -71.99830 -70.30669 53.22078 -67.36235 21.04361 -6.53741 -12.94235 -22.08879 4.93361 -5.41304 59.57458 -6.11341 81.51647 -37.53376 -15.25489 25.10825 19.76530 7.11120 8.06894 6.14921 -33.05822 -23.02857 -39.15245 28.47842 92.99171 33.18618 -0.00006 0.01379 -32.28288 -10.34288 -95.45277 -43.90120 11.93097 36.56991 76.99650 24.76713 -63.08194 -30.00049 0.00987 0.00951 9.81603 -57.17717 12.90202 
-426.79065 77.87415 -149.12645 19.84758 -1.24256 76.06243 -14.92867 47.06931 32.30012 -0.01566 0.06782 -0.10413 22.16841 -1.18929 -51.83882 2.70543 2.64336 -7.21638 -105.23056 -44.25718 -71.87191 -69.97977 54.35492 -64.44664 17.15829 6.48366 -21.74051 -19.08849 4.39917 -4.74015 64.29223 -8.39561 78.37987 -28.67826 -17.52088 39.25536 20.86759 8.24821 8.19611 6.78223 -34.47092 -25.50282 -42.75130 28.22984 97.33221 33.77896 0.00426 0.00587 -33.87576 -11.26428 -96.59164 -44.37158 13.17319 35.59547 76.21181 25.66343 -62.48716 -29.92234 0.01100 0.00944 10.87742 -57.29300 13.67298 
